<?xml version="1.0" encoding="utf-8"?>
<!-- Generator: Adobe Illustrator 24.0.1, SVG Export Plug-In . SVG Version: 6.00 Build 0)  -->
<svg version="1.1" xmlns="http://www.w3.org/2000/svg" xmlns:xlink="http://www.w3.org/1999/xlink" x="0px" y="0px"
	 viewBox="0 0 287 233" style="enable-background:new 0 0 287 233;" xml:space="preserve">
<style type="text/css">
	.st0{display:none;}
	.st1{fill:#3F3A64;}
	.st2{opacity:0.62;fill:#3F3A64;}
</style>
<g id="Layer_1" class="st0">
	
		<image style="display:inline;overflow:visible;" width="1110" height="998" xlink:href="../../Documents/screenshots/Screen Shot 2020-05-15 at 10.58.33 AM.png"  transform="matrix(0.5 0 0 0.5 -31 -143)">
	</image>
</g>
<g id="Layer_2">
	<path class="st1" d="M91.5,96.5v-27l-58-18l123-45l122,45l-56,17c0,0-26.5-19.5-83.5-10.5c0,0,71,2,82,18v21
		C221,97,166,65,91.5,96.5z"/>
	<path class="st2" d="M267.2,146.1c-4-3.7-8.2-7.2-12.7-10.4c-11-8-23.4-14.3-36.6-18.5c-12.6-4-26-6.2-39.9-6.2
		c-65.5,0-119.8,48.1-129.5,111H34.1c3-66.7,56-120.5,122.4-124.7c2.8-0.2,5.6-0.3,8.5-0.3c24.9,0,48.1,6.9,67.9,19h0
		C246.1,123.9,257.7,134.2,267.2,146.1z"/>
	<path class="st2" d="M254.5,135.7c-11-8-23.4-14.3-36.6-18.5c-12.6-4-26-6.2-39.9-6.2c-65.5,0-119.8,48.1-129.5,111H25
		c0-41.1,18.9-77.7,48.5-101.7c0,0,0,0,0.1-0.1C96,101.9,124.7,91,156,91c28.8,0,55.3,9.3,76.9,25h0
		C240.8,121.7,248.1,128.3,254.5,135.7z"/>
	<path class="st2" d="M217.9,117.2c-12.6-4-26-6.2-39.9-6.2c-65.5,0-119.8,48.1-129.5,111H17.1c1.9-42.2,23.7-79.2,56.3-101.7
		c0,0,0,0,0.1-0.1C94.7,105.6,120.3,97,148,97c2.9,0,5.7,0.1,8.5,0.3C179,98.7,199.9,105.8,217.9,117.2z"/>
</g>
</svg>
