<svg id="Layer_1" data-name="Layer 1" xmlns="http://www.w3.org/2000/svg" viewBox="0 0 5733.2 1125.63"><defs><style>.cls-1{fill:#fa0;}.cls-1,.cls-2,.cls-3{fill-rule:evenodd;}.cls-2{fill:#ffbd38;}.cls-3{fill:none;stroke:#fa0;stroke-miterlimit:10;stroke-width:9px;}</style></defs><title>stars</title><polygon class="cls-1" points="596.92 56.34 736.17 393.98 1100.31 422.08 822.23 658.85 908.03 1013.86 596.92 822.55 285.8 1013.86 371.6 658.85 93.52 422.08 457.67 393.98 596.92 56.34 596.92 56.34"/><polygon class="cls-2" points="596.92 56.34 736.17 393.98 1100.31 422.08 822.23 658.85 908.03 1013.86 596.92 822.55 596.92 56.34 596.92 56.34"/><polygon class="cls-3" points="5381.63 658.85 5467.43 1013.86 5156.31 822.55 4845.2 1013.86 4931 658.85 4652.92 422.08 5017.06 393.98 5156.31 56.34 5295.57 393.98 5659.71 422.08 5381.63 658.85"/><polygon class="cls-2" points="596.92 56.34 736.17 393.98 1100.31 422.08 822.23 658.85 908.03 1013.86 596.92 822.55 596.92 56.34 596.92 56.34"/><polygon class="cls-3" points="1962.08 658.85 2047.88 1013.86 1736.77 822.55 1425.65 1013.86 1511.45 658.85 1233.37 422.08 1597.52 393.98 1736.77 56.34 1876.02 393.98 2240.16 422.08 1962.08 658.85"/><polygon class="cls-3" points="3101.93 658.85 3187.74 1013.86 2876.61 822.55 2565.51 1013.86 2651.3 658.85 2373.22 422.08 2737.36 393.98 2876.61 56.34 3015.86 393.98 3380.01 422.08 3101.93 658.85"/><polygon class="cls-3" points="4241.78 658.85 4327.59 1013.86 4016.47 822.55 3705.34 1013.86 3791.16 658.85 3513.07 422.08 3877.22 393.98 4016.47 56.34 4155.72 393.98 4519.86 422.08 4241.78 658.85"/></svg>