<svg id="Layer_1" data-name="Layer 1" xmlns="http://www.w3.org/2000/svg" viewBox="0 0 5733.2 1125.63"><defs><style>.cls-1{fill:#fa0;}.cls-1,.cls-2,.cls-3{fill-rule:evenodd;}.cls-2{fill:#ffbd38;}.cls-3{fill:none;stroke:#fa0;stroke-miterlimit:10;stroke-width:9px;}</style></defs><title>stars</title><polygon class="cls-1" points="595.06 88.6 734.31 426.23 1098.45 454.33 820.37 691.11 906.17 1046.11 595.06 854.81 283.94 1046.11 369.74 691.11 91.66 454.33 455.81 426.23 595.06 88.6 595.06 88.6"/><polygon class="cls-2" points="595.06 88.6 734.31 426.23 1098.45 454.33 820.37 691.11 906.17 1046.11 595.06 854.81 595.06 88.6 595.06 88.6"/><polygon class="cls-3" points="5379.77 691.11 5465.57 1046.12 5154.45 854.8 4843.34 1046.12 4929.14 691.11 4651.06 454.33 5015.2 426.24 5154.45 88.59 5293.71 426.24 5657.85 454.33 5379.77 691.11"/><polygon class="cls-3" points="3100.07 691.1 3185.87 1046.11 2874.75 854.8 2563.64 1046.11 2649.44 691.1 2371.36 454.33 2735.5 426.23 2874.75 88.59 3014 426.23 3378.15 454.33 3100.07 691.1"/><polygon class="cls-3" points="4239.92 691.1 4325.72 1046.11 4014.6 854.8 3703.48 1046.11 3789.29 691.1 3511.2 454.33 3875.35 426.23 4014.6 88.59 4153.85 426.23 4518 454.33 4239.92 691.1"/><polygon class="cls-1" points="1741.39 84.06 1880.64 421.69 2244.79 449.8 1966.71 686.57 2052.51 1041.57 1741.39 850.27 1430.28 1041.57 1516.08 686.57 1238 449.8 1602.14 421.69 1741.39 84.06 1741.39 84.06"/><polygon class="cls-2" points="1741.39 84.06 1880.64 421.69 2244.79 449.8 1966.71 686.57 2052.51 1041.57 1741.39 850.27 1741.39 84.06 1741.39 84.06"/></svg>