<svg id="Layer_1" data-name="Layer 1" xmlns="http://www.w3.org/2000/svg" viewBox="0 0 5733.2 1125.63"><defs><style>.cls-1{fill:#fa0;}.cls-1,.cls-2,.cls-3{fill-rule:evenodd;}.cls-2{fill:#ffbd38;}.cls-3{fill:none;stroke:#fa0;stroke-miterlimit:10;stroke-width:9px;}</style></defs><title>stars</title><polygon class="cls-1" points="2876.62 105.83 2737.37 443.46 2373.22 471.56 2651.3 708.34 2565.5 1063.34 2876.62 872.04 2876.62 105.83 2876.62 105.83"/><polygon class="cls-1" points="595.06 105.83 734.31 443.46 1098.45 471.56 820.37 708.34 906.17 1063.34 595.06 872.04 283.94 1063.34 369.74 708.34 91.66 471.56 455.81 443.46 595.06 105.83 595.06 105.83"/><polygon class="cls-2" points="595.06 105.83 734.31 443.46 1098.45 471.56 820.37 708.34 906.17 1063.34 595.06 872.04 595.06 105.83 595.06 105.83"/><polygon class="cls-3" points="5379.77 708.33 5465.57 1063.34 5154.45 872.03 4843.34 1063.34 4929.14 708.33 4651.06 471.56 5015.2 443.46 5154.45 105.82 5293.71 443.46 5657.85 471.56 5379.77 708.33"/><polygon class="cls-3" points="3100.07 708.33 3185.87 1063.34 2874.75 872.03 2563.64 1063.34 2649.44 708.33 2371.36 471.56 2735.5 443.46 2874.75 105.82 3014 443.46 3378.15 471.56 3100.07 708.33"/><polygon class="cls-3" points="4239.92 708.33 4325.72 1063.34 4014.6 872.03 3703.48 1063.34 3789.29 708.33 3511.2 471.56 3875.35 443.46 4014.6 105.82 4153.85 443.46 4518 471.56 4239.92 708.33"/><polygon class="cls-1" points="1741.39 101.28 1880.64 438.92 2244.79 467.02 1966.71 703.8 2052.51 1058.8 1741.39 867.5 1430.28 1058.8 1516.08 703.8 1238 467.02 1602.14 438.92 1741.39 101.28 1741.39 101.28"/><polygon class="cls-2" points="1741.39 101.28 1880.64 438.92 2244.79 467.02 1966.71 703.8 2052.51 1058.8 1741.39 867.5 1741.39 101.28 1741.39 101.28"/><polygon class="cls-1" points="2876.62 105.83 2737.37 443.46 2373.22 471.56 2651.3 708.34 2565.5 1063.34 2876.62 872.04 2876.62 105.83 2876.62 105.83"/></svg>