<svg id="Layer_1" data-name="Layer 1" xmlns="http://www.w3.org/2000/svg" viewBox="0 0 5733.2 1125.63"><defs><style>.cls-1{fill:#fa0;}.cls-1,.cls-2,.cls-3{fill-rule:evenodd;}.cls-2{fill:#ffbd38;}.cls-3{fill:none;stroke:#fa0;stroke-miterlimit:10;stroke-width:9px;}</style></defs><title>stars</title><polygon class="cls-1" points="593.2 79.03 732.45 416.67 1096.59 444.77 818.51 681.54 904.31 1036.55 593.2 845.25 282.08 1036.55 367.88 681.54 89.8 444.77 453.94 416.67 593.2 79.03 593.2 79.03"/><polygon class="cls-2" points="593.2 79.03 732.45 416.67 1096.59 444.77 818.51 681.54 904.31 1036.55 593.2 845.25 593.2 79.03 593.2 79.03"/><polygon class="cls-3" points="5377.91 681.54 5463.71 1036.55 5152.59 845.24 4841.48 1036.55 4927.28 681.54 4649.2 444.77 5013.34 416.67 5152.59 79.03 5291.85 416.67 5655.99 444.77 5377.91 681.54"/><polygon class="cls-3" points="4238.06 681.54 4323.86 1036.55 4012.74 845.24 3701.62 1036.55 3787.43 681.54 3509.34 444.77 3873.49 416.67 4012.74 79.03 4151.99 416.67 4516.14 444.77 4238.06 681.54"/><polygon class="cls-1" points="1739.53 74.49 1878.78 412.13 2242.93 440.23 1964.85 677 2050.65 1032.01 1739.53 840.71 1428.41 1032.01 1514.21 677 1236.13 440.23 1600.28 412.13 1739.53 74.49 1739.53 74.49"/><polygon class="cls-2" points="1739.53 74.49 1878.78 412.13 2242.93 440.23 1964.85 677 2050.65 1032.01 1739.53 840.71 1739.53 74.49 1739.53 74.49"/><polygon class="cls-1" points="2876.62 84.06 3015.87 421.69 3380.02 449.8 3101.93 686.57 3187.74 1041.57 2876.62 850.27 2565.5 1041.57 2651.3 686.57 2373.22 449.8 2737.37 421.69 2876.62 84.06 2876.62 84.06"/><polygon class="cls-2" points="2876.62 84.06 3015.87 421.69 3380.02 449.8 3101.93 686.57 3187.74 1041.57 2876.62 850.27 2876.62 84.06 2876.62 84.06"/></svg>