<svg id="Layer_1" data-name="Layer 1" xmlns="http://www.w3.org/2000/svg" viewBox="0 0 1989.21 1523.72"><defs><style>.cls-1{fill:#50bfa5;}.cls-2{fill:#3c8f7c;}.cls-3{fill:#355389;}.cls-4{fill:#466eb6;}.cls-5{fill:#f7cc7f;}.cls-6{fill:#fae0b2;}.cls-7{fill:#96d9c9;}.cls-8{fill:#f48c7f;}.cls-9{fill:#b75742;}.cls-10{fill:#86b1f2;}.cls-11{fill:#f47458;}.cls-12{fill:#184655;}.cls-13{fill:#f7a491;}.cls-14{fill:#13375b;}.cls-15{fill:#fff;}.cls-16{fill:#9bc1f9;}</style></defs><title>girlbok</title><polygon class="cls-1" points="785.66 317.02 771.06 321.5 761.26 298.81 739.11 302.73 729 286.95 721.01 292.06 734.53 313.17 755.52 309.46 765.72 333.06 787.68 326.32 785.66 317.02"/><polygon class="cls-1" points="1721.71 1133.11 1707.12 1137.59 1697.31 1114.9 1675.16 1118.82 1665.05 1103.04 1657.06 1108.16 1670.59 1129.27 1691.58 1125.55 1701.78 1149.16 1723.74 1142.42 1721.71 1133.11"/><path class="cls-1" d="M695.72,1401.75s-77.89-264-84.14-322.24,37.31-40.19,37.31-40.19-36.64-111-10.15-137.3,50.4,22.76,50.4,22.76,8-134.71,36.26-134.75C778,789.93,777,936.93,777,936.93s13.43-57.55,41.6-41.77c42.49,23.79-18.44,139.13-18.44,139.13s54.14,0,73.16,27.33C907.42,1110.6,695.72,1401.75,695.72,1401.75Z"/><path class="cls-1" d="M721.18,1366.8s-224.54-37.54-273.38-77.33-.5-57.73-.5-57.73-112.8-57.82-111.49-97.14,57.34-19.33,57.34-19.33-95-108.38-72.54-129c41.91-38.34,151.79,74.33,151.79,74.33s-32.63-53.58,1.73-62.06c51.82-12.79,90.06,119.32,90.06,119.32s-9.71-52.17,26-45.22C654.32,1085.15,721.18,1366.8,721.18,1366.8Z"/><path class="cls-2" d="M590.21,1072.68c-35.82-6.48-26,45.22-26,45.22S526,985.79,474.13,998.58c-34.36,8.48-1.73,62.06-1.73,62.06S362.52,948,320.61,986.31l399.82,380.56C713.31,1330.52,650.26,1083.54,590.21,1072.68Z"/><path class="cls-3" d="M785.07,1397.78S666.82,1277.52,607.27,1265s-48.84,29.84-48.84,29.84-118.15-103.32-145.53-78.28,2.24,49.2,2.24,49.2-98.42-17.44-112.5,14.86c-21.65,49.62,140.2,76.63,140.2,76.63s-67.82,4.7-52.09,35.82C414.47,1440,785.07,1397.78,785.07,1397.78Z"/><path class="cls-4" d="M302.64,1280.62c14.08-32.3,112.5-14.86,112.5-14.86s-29.62-24.17-2.24-49.2,141.85,64.23,141.85,64.23-27-51.59,32.56-39.07,197.76,156.06,197.76,156.06Z"/><path class="cls-5" d="M973.32,157.53c-39.8,6.54-51.62,58.79-18.53,82.15a30.4,30.4,0,0,1,11.81,17.57l6,24.3a13.24,13.24,0,0,0,15,9.88l15.08-2.48a13.23,13.23,0,0,0,11-14.16c-2.09-25.09-4.68-34.19,3.48-45.38C1041.06,196.68,1013.14,151,973.32,157.53Z"/><path class="cls-6" d="M977.39,263.73c-2.6-21.49-6.23-44.18-7.47-50.62-22.82,1.26-14.15-22.79-3.62-13,3,2.78,4.42,6.56,5.36,10.7a58.88,58.88,0,0,0,21.73-6.33c-.36-5.3-.88-9.32.6-12.71,2.23-5.12,8.73-6.52,11.37-1.52a8,8,0,0,1,.44,6.25c-1.52,4.24-6.13,7-10.14,9.24,1.2,17.08,2.86,34.3,5,51.26l-2.15.27c-2.06-16.69-3.71-33.62-4.9-50.44a61.15,61.15,0,0,1-21.46,6.12c1.56,8.23,5,30.35,7.44,50.53ZM959.08,208c2,2.18,5.43,3.15,10.38,2.92-.85-3.65-2.12-6.94-4.63-9.27C959.16,196.42,955.68,204.37,959.08,208ZM996,192.63c-1.25,2.85-.77,6.5-.49,10.7,3.26-1.85,7-4.17,8.27-7.57.86-2.39-.1-5.75-2.53-6.38C1001,189.32,996.85,190.63,996,192.63Z"/><path class="cls-7" d="M966.42,256.65c.05.21.13.4.18.6l6,24.3a13.24,13.24,0,0,0,15,9.88l15.08-2.48a13.23,13.23,0,0,0,11-14.16c-.93-11.16-2-19.15-2.09-25.58Z"/><path class="cls-6" d="M943.82,139.38l-11.9-21.73a4.34,4.34,0,1,1,7.61-4.17l11.9,21.73a4.34,4.34,0,0,1-7.61,4.17Z"/><path class="cls-6" d="M917.8,191.93l-25.94-2.27a4.34,4.34,0,1,1,.75-8.64l25.95,2.26a4.34,4.34,0,1,1-.76,8.65Z"/><path class="cls-6" d="M892.08,271.47a4.33,4.33,0,0,1,0-6.13,141.19,141.19,0,0,1,20.85-17,4.34,4.34,0,1,1,4.82,7.22,133.78,133.78,0,0,0-19.56,16A4.33,4.33,0,0,1,892.08,271.47Z"/><path class="cls-6" d="M1007.92,138.21a4.34,4.34,0,0,1-3.07-5.32,165,165,0,0,0,5.35-33.71,4.34,4.34,0,1,1,8.67.47,174,174,0,0,1-5.63,35.48A4.36,4.36,0,0,1,1007.92,138.21Z"/><path class="cls-6" d="M1034.64,171.56a4.34,4.34,0,0,1,2.9-5.41l27-8.13a4.34,4.34,0,1,1,2.51,8.31l-27,8.13A4.34,4.34,0,0,1,1034.64,171.56Z"/><path class="cls-6" d="M1079,243.33a4.37,4.37,0,0,1-1.18-.17,136.2,136.2,0,0,1-27-10.82,4.34,4.34,0,1,1,4.07-7.67,127.41,127.41,0,0,0,25.29,10.14,4.34,4.34,0,0,1-1.17,8.52Z"/><path class="cls-5" d="M1474,435.24l-13.6-32.18-34.23-7a4.8,4.8,0,0,1-2.17-8.33l26.39-22.89-3.88-34.72a4.8,4.8,0,0,1,7.25-4.65l29.92,18,31.82-14.43a4.8,4.8,0,0,1,6.66,5.46l-7.91,34,23.56,25.8a4.8,4.8,0,0,1-3.14,8l-34.81,3-17.26,30.38A4.81,4.81,0,0,1,1474,435.24Z"/><polygon class="cls-8" points="1690.64 324.82 1685.04 347.35 1647.8 342.36 1635.56 374.28 1607.08 375.1 1607.5 389.52 1645.59 388.43 1657.19 358.17 1695.93 363.37 1704.35 329.47 1690.64 324.82"/><path class="cls-9" d="M1358.85,1404.7H704.22c-25,0-45.27-21-45.27-47v-27.92c0-25.93,20.27-47,45.27-47h654.63c-29.95,34-30.47,85.84-1.21,120.42Z"/><path class="cls-6" d="M1348.74,1296.82H985.65c-25,0-45.28,21-45.28,47h0c0,25.94,20.27,47,45.28,47h363.12A93.16,93.16,0,0,1,1348.74,1296.82Z"/><path class="cls-10" d="M1128.87,1198.25c1-1.79-.5-3.85-2.7-3.85H779.78c-27.15,0-49.16,19.8-49.16,44.24h0c0,24.43,22,44.24,49.16,44.24h346.48c2.22,0,3.67-2.08,2.71-3.87h0A84.73,84.73,0,0,1,1128.87,1198.25Z"/><path class="cls-5" d="M1126.68,1202.63H955c-31.86,0-57.69,16.6-57.69,37.08s25.83,37.07,57.69,37.07h172.8A84.61,84.61,0,0,1,1126.68,1202.63Z"/><path class="cls-9" d="M1082.35,1220.21H1060c-4.81,0-8.71,1.61-8.71,3.6v.33h31.07Z"/><path class="cls-11" d="M1101.42,1229.25c0-5-5.84-9-13.05-9h-28.69c5.47,0,9.9,3.07,9.9,6.85l-.14,96.94,15.85-12.47,16.16,12.47Z"/><path class="cls-6" d="M1065.18,1191.21H863.64c-17.88,0-32.36-17.2-32.36-38.41h0c0-21.22,14.48-38.41,32.36-38.41h201.54c-15.4,21.29-16,52.53-1.44,74.63Z"/><path class="cls-4" d="M831.29,1152.8h0c0-21.22,14.84-38.41,33.13-38.41H1069a1.87,1.87,0,0,0,1.72-2h0a1.87,1.87,0,0,0-1.72-2H744.45c-20.19,0-36.56,19-36.56,42.39h0c0,23.41,16.37,42.39,36.56,42.39H1069a1.87,1.87,0,0,0,1.72-2h0a1.87,1.87,0,0,0-1.72-2H864.42C846.13,1191.21,831.29,1174,831.29,1152.8Z"/><path class="cls-12" d="M1030,1133.26h-22.36c-4.81,0-8.7,1.59-8.7,3.54v.32H1030Z"/><path class="cls-2" d="M1049.06,1142.13c0-4.9-5.84-8.87-13-8.87h-28.69c5.46,0,9.89,3,9.89,6.73l-.14,95.06,15.86-12.23,16.15,12.23Z"/><path class="cls-12" d="M1386.3,546.09l29.76-7.83-20.17,269-35.7,1.19,18-252.56A10.89,10.89,0,0,1,1386.3,546.09Z"/><path class="cls-5" d="M1398.56,814.9a10,10,0,0,1-2,0c-5.91-.7-10.28-6.58-9.77-13.13l19.8-252.91c.52-6.56,5.72-11.3,11.63-10.6s10.29,6.57,9.77,13.13l-19.8,252.91C1407.7,810.06,1403.58,814.43,1398.56,814.9Z"/><path class="cls-5" d="M1124.72,828.37c0,.18,0,.37,0,.56h0c.93,10.29,8.9,18,17.81,17.18l251.27-22.49c8.9-.79,15.36-9.78,14.43-20.07,0-.43-.09-.86-.16-1.29Z"/><path class="cls-13" d="M1299.7,1100c-16.46,9.12-66.75-6.88-66.75-8.32-.72,13.75-56.32,148.28-56.32,148.28l0,41.39s114.55,5.46,112.9-4.66-7.8-3.54-30.66-22.66c-2-1.69-34.11-9.14-25.43-28.13C1251,1187.68,1288.12,1123.91,1299.7,1100Z"/><path class="cls-2" d="M1172.91,1282.86l125.4,0c4.52-.46,5.58-4.14,4-6.38-3.29-4.61-27.32-15.48-43.47-22.69-28.14,3.29-77.61-7.53-82.14-13.95C1164.78,1255.83,1170.39,1282.34,1172.91,1282.86Z"/><path class="cls-3" d="M1145.4,1003.44c-1.69-5.09,108-51.63,112.87-46.31,8.69,9.41-59.33,185.95-59.33,185.95l78.15,23.88s81.23-204,77.84-241.27-44.09-79.7-132.26-52.57S1145.4,1003.44,1145.4,1003.44Z"/><path class="cls-13" d="M1372.45,1123.24c-18.51-3.38-42.5-4.33-61.71-4.67,2.26,17.11,13.25,104.8,11.25,110.19a65.88,65.88,0,0,1-26.2,32s85.15,76.83,90.29,68-3.8-7.69-9.36-37c-.49-2.6-12.8-43.46-13.56-65.5C1361.7,1184.27,1371.82,1146.57,1372.45,1123.24Z"/><path class="cls-4" d="M1345.13,836.35c-11.88-6.34-42.72-6.56-76.63-4.36a777.88,777.88,0,0,0-194.25,38.12l-42.08,13.94.14-43.14s-133.88-22.4-138.54,10.78c-7,50,1.69,151.4,46.3,174,138.55,70.33,332.7-112,333.4-88.17,1,32,28,151.27,34.86,203.48,19.21.33,52.21.32,66.53-3C1377.64,1035.8,1379,854.39,1345.13,836.35Z"/><path class="cls-2" d="M1293.19,1262.6l95.72,76.46c3.8,2.51,6.95.34,7.13-2.41.37-5.65-11.33-29.29-19.25-45.1-23.85-15.29-55.3-55.17-54.74-63C1312,1237.07,1291.57,1260.59,1293.19,1262.6Z"/><path class="cls-14" d="M1076.53,419.31c-3.21-29.4-6.6-58.9-31-80.44-19.72-17.44-44.79-20.39-69.58-11.06-70.24,26.43-34,88.81-123.61,151.7-27.82,19.54-58.5,32.92-79.45,59.23-29.33,36.83-18.25,81.14,8.47,110.72C909.29,791,1052.07,599.85,1062.32,554,1070,519.83,1078.6,438.23,1076.53,419.31Z"/><path class="cls-1" d="M1050.57,584.59a390.49,390.49,0,0,0-21.21-34.54c-10.84-19.27-38.83-29-38.83-29s-9.37.19-20.12.72a8.5,8.5,0,0,1-2,3.57c-4,3-27.2-.88-42.16,9.27-50.13,43-36.26,251.29-32.32,317.09l152.69,1.44s-19.25-141.57,11.77-177.94C1080,649.86,1066.06,613.16,1050.57,584.59Z"/><path class="cls-13" d="M981.74,450.57s-8.39,59.94-14.25,74.51,32.23,45.71,63.92,55.17-9.68-32.18-8.37-47.75,7.08-89.3,7.08-89.3Z"/><path class="cls-11" d="M1028.51,464.35c.93-12.2,1.61-21.15,1.61-21.15l-48.38,7.37s-1.22,7-2.57,17C998.78,479,1016.42,475.35,1028.51,464.35Z"/><path class="cls-13" d="M996.91,341.08a55,55,0,0,0-30.84,22.27c-11.77,18-19.85,70.86,18.92,95.54s68.94-10.23,69.44-44.29S1047.63,335.07,996.91,341.08Z"/><path class="cls-13" d="M1063.3,403.94c-3.31,8.22-9.87,13.32-14.66,11.39s-6-10.15-2.68-18.37,9.87-13.32,14.66-11.4S1066.61,395.72,1063.3,403.94Z"/><path class="cls-14" d="M1002.63,340S978.32,394.49,957,399.36s-21,32.31-21,32.31.48-63.36,20.49-77.89S1002.63,340,1002.63,340Z"/><path class="cls-13" d="M965.45,410.69c2.81,8.86.24,17.58-5.75,19.48s-13.11-3.74-15.92-12.6-.24-17.57,5.74-19.47S962.64,401.84,965.45,410.69Z"/><path class="cls-13" d="M1238.56,804.34c-9.16-3.32-22.8-3.73-22.57-4.94.92-4.89,41.4,10.81,35.93,3.67-3.05-4-33.33-18.07-40.7-15.74-7.14,2.25-54,15.42-54,15.42L1029,772.7S996.62,699.17,993.46,636c-26.75,3.62-45,10.23-68.21,23.13,11.21,60.41,38.47,158.34,68.58,176.71,12.68,7.73,164-9.25,164-9.25s33.34-2.35,38.79-4.45c4.13-1.59,14.77-7.58,20.56-9.22,13.15-3.72,36.59,5.63,36.66,3.05C1253.87,814.1,1247.92,807.72,1238.56,804.34Z"/><path class="cls-7" d="M994.24,568.5c-1.23-19.44-8.59-38.2-29.27-44.25-12.82-3.74-27.2-.16-37.45,8.21-12.19,9.95-15.59,25.92-15.53,41,.13,34.31,2.47,69.89,8.74,103.68,23.24-12.91,50.38-20.66,77.13-24.28C997.84,652.69,995.87,594.19,994.24,568.5Z"/><path class="cls-5" d="M597.05,605.18l-198.74-37a7.35,7.35,0,0,1-5.88-8.57l24.9-133.7A7.34,7.34,0,0,1,425.9,420l198.74,37a7.36,7.36,0,0,1,5.89,8.58l-24.9,133.7A7.35,7.35,0,0,1,597.05,605.18Z"/><path class="cls-5" d="M502.45,452.33,442,441.07a7.35,7.35,0,0,1-5.88-8.57l3.79-20.35a7.35,7.35,0,0,1,8.57-5.88l60.5,11.26a7.36,7.36,0,0,1,5.88,8.58L511,446.45A7.34,7.34,0,0,1,502.45,452.33Z"/><path class="cls-6" d="M606.1,600.07a7.35,7.35,0,0,1-8.42,5.23l-200-37.25a7.36,7.36,0,0,1-6-7.87l10.47-119.85a7.37,7.37,0,0,1,8.67-6.59L633,475.13a7.34,7.34,0,0,1,5.73,9.22Z"/><polygon class="cls-1" points="1517.67 162.16 1483.64 171.45 1476.31 130.21 1487.45 128.23 1492.61 157.28 1514.69 151.25 1517.67 162.16"/><path class="cls-3" d="M433.42,728.56c8.53-.7,21.61,3.06,27.48,7,.88.83,7.63,3.52,14.64,15.13l-1.58,1.1c-7.4-7.75-12.37-9.48-18.3-11.26-9.77-2.51-19.62-.64-20.43-.2Z"/><path class="cls-11" d="M474.75,751.27s-51.93,8.67-47.08,49.23,59.62,72.13,108.51,47c65.78-33.75,39.8-119.56-7-126.2S474.75,751.27,474.75,751.27Z"/><path class="cls-8" d="M496.78,733.41s13.55-13.91,43.23-1.26,31.84,71.67,5.36,68.24S475.61,741.92,496.78,733.41Z"/><path class="cls-10" d="M854,194.48,640.44,270.66a13.22,13.22,0,0,1-16.91-8L584.11,152.13a13.23,13.23,0,0,1,8-16.91L805.7,59a13.22,13.22,0,0,1,16.91,8L862,177.56A13.24,13.24,0,0,1,854,194.48Z"/><path class="cls-15" d="M712.45,166.07a42.33,42.33,0,1,1-54.08-25.64A42.31,42.31,0,0,1,712.45,166.07Z"/><path class="cls-10" d="M678.65,160.15a12.48,12.48,0,1,1-15.95-7.57A12.47,12.47,0,0,1,678.65,160.15Z"/><path class="cls-10" d="M671.22,182.95h11.49a14.2,14.2,0,0,1,14.2,14.2v5.06a0,0,0,0,1,0,0H657a0,0,0,0,1,0,0v-5.07A14.2,14.2,0,0,1,671.22,182.95Z" transform="translate(-25.35 238.64) rotate(-19.63)"/><path class="cls-15" d="M717.72,143a5.4,5.4,0,0,1-1.82-10.48l93.37-33.31a5.3,5.3,0,0,1,1.81-.31,5.4,5.4,0,0,1,1.81,10.48l-93.36,33.3A5.35,5.35,0,0,1,717.72,143Z"/><path class="cls-15" d="M742.92,166.24a5.4,5.4,0,0,1-1.81-10.48l72.92-26a5.31,5.31,0,0,1,1.81-.32,5.4,5.4,0,0,1,1.81,10.49l-72.92,26A5.3,5.3,0,0,1,742.92,166.24Z"/><path class="cls-11" d="M1185.86,1028H670.16a29,29,0,0,0-29,29v24.39a29,29,0,0,0,29,29h515.7l-.27-.28A59.05,59.05,0,0,1,1185.86,1028Z"/><path class="cls-6" d="M1176.73,1040.23H901.05a29,29,0,0,0-29,29h0a29,29,0,0,0,29,29h275.68A59.13,59.13,0,0,1,1176.73,1040.23Z"/><path class="cls-6" d="M1607.94,1030.41l-39.1-98.08a9.62,9.62,0,0,1,5.38-12.49l140.66-56.07a9.63,9.63,0,0,1,12.5,5.38l39.09,98.07a9.62,9.62,0,0,1-5.37,12.5l-140.67,56.06A9.61,9.61,0,0,1,1607.94,1030.41Z"/><path class="cls-4" d="M1740.63,973.7l-35.13-88.13A2.77,2.77,0,0,1,1707,882h0a2.77,2.77,0,0,1,3.59,1.55l35.13,88.13a2.76,2.76,0,0,1-1.54,3.58h0A2.76,2.76,0,0,1,1740.63,973.7Z"/><path class="cls-4" d="M1723.89,962.09l-28.84-72.36a2.76,2.76,0,0,1,1.55-3.58h0a2.75,2.75,0,0,1,3.58,1.54L1729,960.05a2.76,2.76,0,0,1-1.54,3.58h0A2.76,2.76,0,0,1,1723.89,962.09Z"/><path class="cls-4" d="M1719.73,982,1684.6,893.9a2.77,2.77,0,0,1,1.55-3.59h0a2.76,2.76,0,0,1,3.58,1.55L1724.86,980a2.76,2.76,0,0,1-1.54,3.58h0A2.76,2.76,0,0,1,1719.73,982Z"/><path class="cls-4" d="M1701.27,966.08l-27.11-68a2.75,2.75,0,0,1,1.54-3.58h0a2.75,2.75,0,0,1,3.58,1.54l27.11,68a2.76,2.76,0,0,1-1.54,3.59h0A2.76,2.76,0,0,1,1701.27,966.08Z"/><path class="cls-3" d="M1739.69,876.17l-.71-1.77a1.23,1.23,0,0,0-1.59-.74L1724,879a1.23,1.23,0,0,0-.64,1.62l.71,1.78a1.25,1.25,0,0,0,1.59.74L1739,877.8A1.24,1.24,0,0,0,1739.69,876.17Z"/><path class="cls-3" d="M1742.71,883.76,1742,882a1.23,1.23,0,0,0-1.58-.74l-13.35,5.32a1.24,1.24,0,0,0-.64,1.63l.71,1.77a1.24,1.24,0,0,0,1.58.74l13.35-5.32A1.24,1.24,0,0,0,1742.71,883.76Z"/><path class="cls-3" d="M1745.74,891.35l-.71-1.77a1.23,1.23,0,0,0-1.58-.74l-13.35,5.32a1.24,1.24,0,0,0-.65,1.63l.71,1.77a1.24,1.24,0,0,0,1.59.74L1745.1,893A1.24,1.24,0,0,0,1745.74,891.35Z"/><path class="cls-3" d="M1748.76,898.94l-.7-1.77a1.24,1.24,0,0,0-1.59-.74l-13.35,5.32a1.24,1.24,0,0,0-.64,1.63l.71,1.77a1.23,1.23,0,0,0,1.58.74l13.35-5.32A1.24,1.24,0,0,0,1748.76,898.94Z"/><path class="cls-3" d="M1751.79,906.53l-.71-1.77a1.24,1.24,0,0,0-1.58-.74l-13.35,5.32a1.24,1.24,0,0,0-.65,1.63l.71,1.77a1.23,1.23,0,0,0,1.59.74l13.35-5.32A1.24,1.24,0,0,0,1751.79,906.53Z"/><path class="cls-3" d="M1754.81,914.12l-.7-1.77a1.24,1.24,0,0,0-1.59-.74l-13.35,5.32a1.24,1.24,0,0,0-.64,1.63l.71,1.77a1.23,1.23,0,0,0,1.58.74l13.35-5.32A1.23,1.23,0,0,0,1754.81,914.12Z"/><path class="cls-3" d="M1757.84,921.72l-.71-1.78a1.24,1.24,0,0,0-1.58-.74l-13.35,5.32a1.24,1.24,0,0,0-.64,1.63l.7,1.77a1.23,1.23,0,0,0,1.59.74l13.35-5.32A1.23,1.23,0,0,0,1757.84,921.72Z"/><path class="cls-3" d="M1760.86,929.31l-.7-1.78a1.25,1.25,0,0,0-1.59-.74l-13.35,5.32a1.25,1.25,0,0,0-.64,1.63l.71,1.77a1.23,1.23,0,0,0,1.58.74l13.35-5.32A1.22,1.22,0,0,0,1760.86,929.31Z"/><path class="cls-3" d="M1763.89,936.9l-.71-1.78a1.24,1.24,0,0,0-1.58-.74l-13.35,5.32a1.24,1.24,0,0,0-.64,1.63l.7,1.77a1.24,1.24,0,0,0,1.59.74l13.35-5.32A1.23,1.23,0,0,0,1763.89,936.9Z"/><path class="cls-3" d="M1766.92,944.49l-.71-1.78a1.25,1.25,0,0,0-1.59-.74l-13.35,5.33a1.23,1.23,0,0,0-.64,1.62l.71,1.78a1.24,1.24,0,0,0,1.58.74l13.36-5.33A1.23,1.23,0,0,0,1766.92,944.49Z"/><path class="cls-3" d="M1769.94,952.08l-.71-1.78a1.22,1.22,0,0,0-1.58-.73l-13.35,5.32a1.22,1.22,0,0,0-.64,1.62l.71,1.78a1.24,1.24,0,0,0,1.58.74l13.35-5.33A1.23,1.23,0,0,0,1769.94,952.08Z"/><path class="cls-3" d="M1773,959.67l-.71-1.78a1.24,1.24,0,0,0-1.58-.74l-13.35,5.33a1.23,1.23,0,0,0-.65,1.62l.71,1.78a1.24,1.24,0,0,0,1.58.74l13.36-5.33A1.23,1.23,0,0,0,1773,959.67Z"/><path class="cls-9" d="M1809.85,951.86,1754,1031.35a2.62,2.62,0,0,0-.29.58L1748,1049.4a2.19,2.19,0,0,0,3.4,2.42l14.94-11.26a2,2,0,0,0,.47-.49l56-79.7a2.19,2.19,0,0,0-.62-3.1l-9.39-6A2.19,2.19,0,0,0,1809.85,951.86Z"/><path class="cls-5" d="M1766.79,1040.16l-.13.2-14.42,10.86-3.93-2.63,5.39-16.56C1757.92,1034.34,1763,1036.72,1766.79,1040.16Z"/><path class="cls-4" d="M1244.26,91.24c8,6.41,22,27.05,39.85,41.54,10.44,8.47,18.47,6.32,31.79,7.93,63.19,7.64,46.07,20.55,53.64,21.82-2.15,4.95-21.83,46.8-25.51,55.26-3.4,7.8-9.26,11.29-17.76,10.12-13.07-1.81-26.26-3.15-39.12-5.94-33-7.15-51.33-23.65-75-43.68-6.28-5.31-7.82-11.94-4.57-19.45C1222.75,123.88,1242.62,94.45,1244.26,91.24Z"/><path class="cls-10" d="M1376.39,212.87c-.28,13.77.77,16.54-5.14,14.45a84.28,84.28,0,0,1-10.37-4.63c-2.37-1.23-2.47-2.84-.54-4.78,2.81-2.81,5.69-5.56,8.49-8.29a12.19,12.19,0,0,1,5.35-14.64c1-.61.28.67,9.08-19.58-29.1-3.59-49.63-6-85.14-10.37a47.62,47.62,0,0,1-25.27-11q-38-31.82-76.06-63.67c-3.43-2.88-3.87-7.1-1.14-10.35,2.09-2.49,4.85-2.61,7.83-2.23,8.1,1,87.54,10.88,95.61,11.82a52.16,52.16,0,0,1,28.12,12.1q37.38,31.29,74.84,62.47c3.42,2.86,4.35,5.48,3.15,8.66-1.33,3.49-4.21,5.15-8.57,4.21-3.15-.68-4.54.27-5.62,3.19-4.9,13.17-8.31,16.08-7.13,20.89C1384.79,204.83,1380.38,211.26,1376.39,212.87Z"/><path class="cls-4" d="M1508.19,1148.33l14.48,13.81a384.83,384.83,0,0,1,82.38,114.15l2.21,4.7s37.92,3.34,43.21-30.93h0a573.21,573.21,0,0,1-83.24-122.25l-6.85-16Z"/><path class="cls-10" d="M1560.34,1111.73c1.86,2.67-8.3,13-22.71,23s-27.66,16.15-29.52,13.49,8.38-13.1,22.78-23.15S1558.48,1109.06,1560.34,1111.73Z"/><path class="cls-3" d="M1560.4,1111.83l0,0s-28.86,24.42-40.76,26.92l3.68,5a151.8,151.8,0,0,0,14.35-9C1551.87,1124.82,1562,1114.64,1560.4,1111.83Z"/><path class="cls-9" d="M1599,1182.75c0,4.21-1.56,22.39-31.8,30q3,4.07,5.87,8.21c19.14-5.66,27.75-15.49,31.61-23,.61-1.18,1.35-2.77,1.85-4Q1602.65,1188.4,1599,1182.75Z"/><polygon class="cls-9" points="1569.87 1207.35 1525.37 1205.76 1535.92 1214.71 1529.62 1226.14 1571.74 1215.41 1569.87 1207.35"/><polygon class="cls-9" points="1573.93 1217.7 1558.12 1245.24 1569.24 1241.01 1573.52 1249.76 1580.95 1220.79 1573.93 1217.7"/><path class="cls-11" d="M1580,1225.17a14.62,14.62,0,1,1,13.12-15.59A14.41,14.41,0,0,1,1580,1225.17Z"/><path class="cls-16" d="M1674.43,600.2l-93.72-83.63c-6.09-5.44-3.55-16.62,4.85-21.38l74.8-42.35c4.79-2.71,10.18-2.46,13.65.64l93.72,83.63c6.09,5.44,3.56,16.62-4.85,21.37l-74.79,42.36C1683.3,603.55,1677.91,603.3,1674.43,600.2Z"/><path class="cls-15" d="M1670,533.67l-7.81-64.25a5.78,5.78,0,0,1,4-5.88,3.73,3.73,0,0,1,5.09,3l7.19,59.13,71.07,17.19c2.31.55,3.38,3.05,2.38,5.58s-3.7,4.11-6,3.55Z"/><path class="cls-12" d="M87.82,1403.93c-5,0-9.09,4.71-9.09,10.51S82.8,1425,88.9,1417.9H1934.76c2.37,0,4.29-3.1,4.3-6.94h0c0-3.87-1.91-7-4.3-7Z"/><polygon class="cls-5" points="446.17 239.36 455.85 258.52 477.74 257.82 487.08 280.07 510.15 272.12 521.83 296.82 543.98 292.13 559.09 314.05 550.79 319.77 539.49 303.38 516.12 308.33 504.9 284.59 481.43 292.67 471.13 268.11 449.76 268.81 440.78 251.04 426.84 254.43 424.45 244.64 446.17 239.36"/><polygon class="cls-1" points="1618.22 729.59 1638.12 737.68 1654.15 722.76 1675.81 733.4 1687.99 712.26 1713.02 723.21 1726.64 705.12 1752.43 711.72 1749.93 721.48 1730.65 716.55 1716.27 735.64 1692.22 725.11 1679.84 746.61 1655.94 734.87 1640.28 749.43 1621.84 741.94 1613.56 753.65 1605.33 747.83 1618.22 729.59"/></svg>